<svg xmlns="http://www.w3.org/2000/svg" viewBox="0 0 512 512" role="img" aria-label="Conduit Control Center"><title>Conduit Control Center</title><defs><linearGradient id="ccc" x1="0" y1="0" x2="1" y2="0"><stop offset="0" stop-color="#22C7F0"/><stop offset="1" stop-color="#5B34E8"/></linearGradient></defs><g fill="none" stroke="url(#ccc)" stroke-width="42.0" stroke-linecap="round" stroke-linejoin="round"><path d="M 220.40 457.89 A 205.0 205.0 0 0 1 220.40 54.11"/><path d="M 291.60 54.11 A 205.0 205.0 0 0 1 461.00 256.00"/><path d="M 461.00 256.00 A 205.0 205.0 0 0 1 291.60 457.89"/></g><g fill="none" stroke="url(#ccc)" stroke-width="10.0" stroke-linecap="round"><circle cx="256" cy="256" r="64.0"/><line x1="192.0" y1="256" x2="320.0" y2="256"/><line x1="256" y1="192.0" x2="256" y2="320.0"/><ellipse cx="256" cy="256" rx="35.2" ry="64.0"/><line x1="311.4" y1="288.0" x2="368.6" y2="321.0"/><circle cx="368.6" cy="321.0" r="15.0" class="dot"/><line x1="256.0" y1="320.0" x2="256.0" y2="386.0"/><circle cx="256.0" cy="386.0" r="15.0" class="dot"/><line x1="200.6" y1="288.0" x2="143.4" y2="321.0"/><circle cx="143.4" cy="321.0" r="15.0" class="dot"/><line x1="200.6" y1="224.0" x2="143.4" y2="191.0"/><circle cx="143.4" cy="191.0" r="15.0" class="dot"/><line x1="256.0" y1="192.0" x2="256.0" y2="126.0"/><circle cx="256.0" cy="126.0" r="15.0" class="dot"/><line x1="311.4" y1="224.0" x2="368.6" y2="191.0"/><circle cx="368.6" cy="191.0" r="15.0" class="dot"/></g><style>.dot{fill:url(#ccc);stroke:none}</style></svg>